<mxfile host="app.diagrams.net" agent="Mozilla/5.0 (Windows NT 10.0; Win64; x64; rv:138.0) Gecko/20100101 Firefox/138.0" version="26.2.8">
  <diagram id="C5RBs43oDa-KdzZeNtuy" name="Page-1">
    <mxGraphModel dx="1191" dy="1315" grid="1" gridSize="10" guides="1" tooltips="1" connect="1" arrows="1" fold="1" page="1" pageScale="1" pageWidth="827" pageHeight="1169" math="0" shadow="0">
      <root>
        <mxCell id="WIyWlLk6GJQsqaUBKTNV-0" />
        <mxCell id="WIyWlLk6GJQsqaUBKTNV-1" parent="WIyWlLk6GJQsqaUBKTNV-0" />
        <mxCell id="cC4vui-e6IgSE8C8eZLL-2" value="" style="endArrow=classic;html=1;rounded=0;exitX=0.5;exitY=1;exitDx=0;exitDy=0;entryX=0.5;entryY=0;entryDx=0;entryDy=0;" parent="WIyWlLk6GJQsqaUBKTNV-1" edge="1">
          <mxGeometry width="50" height="50" relative="1" as="geometry">
            <mxPoint x="399.9999999999998" y="50" as="sourcePoint" />
            <mxPoint x="399.75" y="180" as="targetPoint" />
          </mxGeometry>
        </mxCell>
        <mxCell id="cC4vui-e6IgSE8C8eZLL-3" value="&lt;div&gt;&lt;font style=&quot;font-size: 20px;&quot;&gt;Load dataset&lt;/font&gt;&lt;/div&gt;" style="rounded=0;whiteSpace=wrap;html=1;" parent="WIyWlLk6GJQsqaUBKTNV-1" vertex="1">
          <mxGeometry x="319.5" y="280" width="160" height="80" as="geometry" />
        </mxCell>
        <mxCell id="cC4vui-e6IgSE8C8eZLL-4" value="" style="endArrow=classic;html=1;rounded=0;exitX=0.5;exitY=1;exitDx=0;exitDy=0;entryX=0.5;entryY=0;entryDx=0;entryDy=0;" parent="WIyWlLk6GJQsqaUBKTNV-1" target="cC4vui-e6IgSE8C8eZLL-3" edge="1">
          <mxGeometry width="50" height="50" relative="1" as="geometry">
            <mxPoint x="399.75" y="260" as="sourcePoint" />
            <mxPoint x="666" y="420" as="targetPoint" />
          </mxGeometry>
        </mxCell>
        <mxCell id="cC4vui-e6IgSE8C8eZLL-5" value="&lt;div&gt;&lt;font style=&quot;font-size: 20px;&quot;&gt;Build graphs&lt;/font&gt;&lt;/div&gt;" style="rounded=0;whiteSpace=wrap;html=1;" parent="WIyWlLk6GJQsqaUBKTNV-1" vertex="1">
          <mxGeometry x="319.5" y="380" width="160" height="80" as="geometry" />
        </mxCell>
        <mxCell id="cC4vui-e6IgSE8C8eZLL-6" value="" style="endArrow=classic;html=1;rounded=0;exitX=0.5;exitY=1;exitDx=0;exitDy=0;entryX=0.5;entryY=0;entryDx=0;entryDy=0;" parent="WIyWlLk6GJQsqaUBKTNV-1" source="cC4vui-e6IgSE8C8eZLL-3" target="cC4vui-e6IgSE8C8eZLL-5" edge="1">
          <mxGeometry width="50" height="50" relative="1" as="geometry">
            <mxPoint x="616" y="470" as="sourcePoint" />
            <mxPoint x="666" y="420" as="targetPoint" />
          </mxGeometry>
        </mxCell>
        <mxCell id="cC4vui-e6IgSE8C8eZLL-7" value="&lt;div&gt;&lt;font style=&quot;font-size: 20px;&quot;&gt;Build ETN, ETNS, count frequencies&lt;/font&gt;&lt;/div&gt;" style="rounded=0;whiteSpace=wrap;html=1;" parent="WIyWlLk6GJQsqaUBKTNV-1" vertex="1">
          <mxGeometry x="319.5" y="480" width="160" height="80" as="geometry" />
        </mxCell>
        <mxCell id="cC4vui-e6IgSE8C8eZLL-8" value="" style="endArrow=classic;html=1;rounded=0;exitX=0.5;exitY=1;exitDx=0;exitDy=0;entryX=0.5;entryY=0;entryDx=0;entryDy=0;" parent="WIyWlLk6GJQsqaUBKTNV-1" source="cC4vui-e6IgSE8C8eZLL-5" target="cC4vui-e6IgSE8C8eZLL-7" edge="1">
          <mxGeometry width="50" height="50" relative="1" as="geometry">
            <mxPoint x="616" y="630" as="sourcePoint" />
            <mxPoint x="666" y="580" as="targetPoint" />
          </mxGeometry>
        </mxCell>
        <mxCell id="cC4vui-e6IgSE8C8eZLL-10" value="&lt;div&gt;&lt;font style=&quot;font-size: 16px;&quot;&gt;&lt;br&gt;&lt;/font&gt;&lt;/div&gt;&lt;div&gt;&lt;font style=&quot;font-size: 17px;&quot;&gt;Visualisations?&lt;/font&gt;&lt;/div&gt;&lt;div&gt;&lt;font style=&quot;font-size: 16px;&quot;&gt;&lt;br&gt;&lt;/font&gt;&lt;/div&gt;" style="rhombus;whiteSpace=wrap;html=1;" parent="WIyWlLk6GJQsqaUBKTNV-1" vertex="1">
          <mxGeometry x="330" y="583" width="140" height="85" as="geometry" />
        </mxCell>
        <mxCell id="cC4vui-e6IgSE8C8eZLL-11" value="" style="endArrow=classic;html=1;rounded=0;exitX=1;exitY=0.5;exitDx=0;exitDy=0;entryX=0;entryY=0.5;entryDx=0;entryDy=0;" parent="WIyWlLk6GJQsqaUBKTNV-1" source="cC4vui-e6IgSE8C8eZLL-10" target="N2DyJ6jGecNc5j2qdSVy-2" edge="1">
          <mxGeometry width="50" height="50" relative="1" as="geometry">
            <mxPoint x="616" y="630" as="sourcePoint" />
            <mxPoint x="510" y="660" as="targetPoint" />
          </mxGeometry>
        </mxCell>
        <mxCell id="cC4vui-e6IgSE8C8eZLL-12" value="" style="endArrow=classic;html=1;rounded=0;entryX=0.5;entryY=0;entryDx=0;entryDy=0;exitX=0.5;exitY=1;exitDx=0;exitDy=0;" parent="WIyWlLk6GJQsqaUBKTNV-1" source="cC4vui-e6IgSE8C8eZLL-7" target="cC4vui-e6IgSE8C8eZLL-10" edge="1">
          <mxGeometry width="50" height="50" relative="1" as="geometry">
            <mxPoint x="616" y="630" as="sourcePoint" />
            <mxPoint x="666" y="580" as="targetPoint" />
          </mxGeometry>
        </mxCell>
        <mxCell id="cC4vui-e6IgSE8C8eZLL-13" value="&lt;font style=&quot;font-size: 17px;&quot;&gt;Yes&lt;/font&gt;" style="text;html=1;align=center;verticalAlign=middle;resizable=0;points=[];autosize=1;strokeColor=none;fillColor=none;" parent="WIyWlLk6GJQsqaUBKTNV-1" vertex="1">
          <mxGeometry x="448.5" y="595.5" width="50" height="30" as="geometry" />
        </mxCell>
        <mxCell id="cC4vui-e6IgSE8C8eZLL-18" value="" style="edgeStyle=orthogonalEdgeStyle;rounded=0;orthogonalLoop=1;jettySize=auto;html=1;" parent="WIyWlLk6GJQsqaUBKTNV-1" source="cC4vui-e6IgSE8C8eZLL-14" target="cC4vui-e6IgSE8C8eZLL-17" edge="1">
          <mxGeometry relative="1" as="geometry" />
        </mxCell>
        <mxCell id="cC4vui-e6IgSE8C8eZLL-14" value="&lt;font style=&quot;font-size: 20px;&quot;&gt;Draw Bar chart&lt;/font&gt;" style="rounded=0;whiteSpace=wrap;html=1;" parent="WIyWlLk6GJQsqaUBKTNV-1" vertex="1">
          <mxGeometry x="560" y="690" width="160" height="80" as="geometry" />
        </mxCell>
        <mxCell id="cC4vui-e6IgSE8C8eZLL-15" value="" style="endArrow=classic;html=1;rounded=0;entryX=0.5;entryY=0;entryDx=0;entryDy=0;exitX=0.5;exitY=1;exitDx=0;exitDy=0;" parent="WIyWlLk6GJQsqaUBKTNV-1" source="N2DyJ6jGecNc5j2qdSVy-2" target="cC4vui-e6IgSE8C8eZLL-14" edge="1">
          <mxGeometry width="50" height="50" relative="1" as="geometry">
            <mxPoint x="560" y="690" as="sourcePoint" />
            <mxPoint x="606" y="650" as="targetPoint" />
          </mxGeometry>
        </mxCell>
        <mxCell id="cC4vui-e6IgSE8C8eZLL-16" value="" style="endArrow=classic;html=1;rounded=0;exitX=0.5;exitY=1;exitDx=0;exitDy=0;" parent="WIyWlLk6GJQsqaUBKTNV-1" source="cC4vui-e6IgSE8C8eZLL-10" target="cC4vui-e6IgSE8C8eZLL-17" edge="1">
          <mxGeometry width="50" height="50" relative="1" as="geometry">
            <mxPoint x="556" y="700" as="sourcePoint" />
            <mxPoint x="400" y="710" as="targetPoint" />
          </mxGeometry>
        </mxCell>
        <mxCell id="cC4vui-e6IgSE8C8eZLL-20" value="" style="edgeStyle=orthogonalEdgeStyle;rounded=0;orthogonalLoop=1;jettySize=auto;html=1;" parent="WIyWlLk6GJQsqaUBKTNV-1" source="cC4vui-e6IgSE8C8eZLL-17" target="cC4vui-e6IgSE8C8eZLL-19" edge="1">
          <mxGeometry relative="1" as="geometry" />
        </mxCell>
        <mxCell id="cC4vui-e6IgSE8C8eZLL-17" value="&lt;font style=&quot;font-size: 20px;&quot;&gt;Build null models, ETN and ETNS&lt;/font&gt;" style="rounded=0;whiteSpace=wrap;html=1;" parent="WIyWlLk6GJQsqaUBKTNV-1" vertex="1">
          <mxGeometry x="320" y="690" width="160" height="80" as="geometry" />
        </mxCell>
        <mxCell id="cC4vui-e6IgSE8C8eZLL-23" value="" style="edgeStyle=orthogonalEdgeStyle;rounded=0;orthogonalLoop=1;jettySize=auto;html=1;" parent="WIyWlLk6GJQsqaUBKTNV-1" source="cC4vui-e6IgSE8C8eZLL-19" edge="1">
          <mxGeometry relative="1" as="geometry">
            <mxPoint x="400" y="900" as="targetPoint" />
          </mxGeometry>
        </mxCell>
        <mxCell id="cC4vui-e6IgSE8C8eZLL-19" value="&lt;font style=&quot;font-size: 20px;&quot;&gt;Deviations&lt;/font&gt;" style="rounded=0;whiteSpace=wrap;html=1;" parent="WIyWlLk6GJQsqaUBKTNV-1" vertex="1">
          <mxGeometry x="319.5" y="790" width="160" height="80" as="geometry" />
        </mxCell>
        <mxCell id="cC4vui-e6IgSE8C8eZLL-21" value="&lt;font style=&quot;font-size: 20px;&quot;&gt;END&lt;/font&gt;" style="ellipse;whiteSpace=wrap;html=1;" parent="WIyWlLk6GJQsqaUBKTNV-1" vertex="1">
          <mxGeometry x="363" y="900" width="74" height="40" as="geometry" />
        </mxCell>
        <mxCell id="cC4vui-e6IgSE8C8eZLL-22" value="&lt;div&gt;&lt;font style=&quot;font-size: 20px;&quot;&gt;START&lt;/font&gt;&lt;/div&gt;" style="ellipse;whiteSpace=wrap;html=1;" parent="WIyWlLk6GJQsqaUBKTNV-1" vertex="1">
          <mxGeometry x="350.5" y="10" width="98" height="50" as="geometry" />
        </mxCell>
        <mxCell id="cC4vui-e6IgSE8C8eZLL-24" value="&lt;div&gt;&lt;font style=&quot;font-size: 17px;&quot;&gt;No&lt;/font&gt;&lt;/div&gt;" style="text;html=1;align=center;verticalAlign=middle;resizable=0;points=[];autosize=1;strokeColor=none;fillColor=none;" parent="WIyWlLk6GJQsqaUBKTNV-1" vertex="1">
          <mxGeometry x="395" y="658" width="50" height="30" as="geometry" />
        </mxCell>
        <mxCell id="N2DyJ6jGecNc5j2qdSVy-0" value="&lt;div&gt;&lt;font style=&quot;font-size: 20px;&quot;&gt;First steps:&lt;/font&gt;&lt;/div&gt;&lt;div&gt;&lt;font style=&quot;font-size: 20px;&quot;&gt;k, temp_gap and dataset&lt;/font&gt;&lt;/div&gt;" style="rounded=0;whiteSpace=wrap;html=1;" vertex="1" parent="WIyWlLk6GJQsqaUBKTNV-1">
          <mxGeometry x="320" y="180" width="160" height="80" as="geometry" />
        </mxCell>
        <mxCell id="N2DyJ6jGecNc5j2qdSVy-1" value="&lt;div&gt;&lt;font style=&quot;font-size: 20px;&quot;&gt;Data preparation&lt;/font&gt;&lt;/div&gt;" style="rounded=0;whiteSpace=wrap;html=1;" vertex="1" parent="WIyWlLk6GJQsqaUBKTNV-1">
          <mxGeometry x="320" y="80" width="160" height="80" as="geometry" />
        </mxCell>
        <mxCell id="N2DyJ6jGecNc5j2qdSVy-2" value="&lt;div&gt;&lt;font style=&quot;font-size: 20px;&quot;&gt;Draw ETN graph&lt;/font&gt;&lt;/div&gt;" style="rounded=0;whiteSpace=wrap;html=1;" vertex="1" parent="WIyWlLk6GJQsqaUBKTNV-1">
          <mxGeometry x="560" y="585.5" width="160" height="80" as="geometry" />
        </mxCell>
      </root>
    </mxGraphModel>
  </diagram>
</mxfile>
